<svg height="120px" width="120px" version="1.1" id="Layer_1" xmlns="http://www.w3.org/2000/svg" xmlns:xlink="http://www.w3.org/1999/xlink" viewBox="0 0 512.352 512.352" xml:space="preserve" fill="#000000"><g id="SVGRepo_bgCarrier" stroke-width="0"></g><g id="SVGRepo_tracerCarrier" stroke-linecap="round" stroke-linejoin="round"></g><g id="SVGRepo_iconCarrier"> <path style="fill:#E2E2E2;" d="M256.176,512.352c141.392,0,256-114.608,256-256s-114.608-256-256-256s-256,114.608-256,256 S114.784,512.352,256.176,512.352z"></path> <g> <polygon style="fill:#ED1C24;" points="311.648,123.872 264.8,82.256 248.864,100.192 314.832,158.8 427.264,14.768 408.368,0 "></polygon> <circle style="fill:#ED1C24;" cx="202.544" cy="461.408" r="50.944"></circle> <circle style="fill:#ED1C24;" cx="385.936" cy="461.408" r="50.944"></circle> <polygon style="fill:#ED1C24;" points="125.376,36.704 0.176,36.704 0.176,60.704 107.632,60.704 153.888,195.376 178.992,195.376 "></polygon> </g> <polygon points="153.888,195.376 103.12,195.376 154.592,387.376 430.912,387.376 512.176,195.376 178.992,195.376 "></polygon> </g></svg>